# xmcd
#
# Track frame offsets:
#	150
#	28965
#	50637
#	74617
#	92927
#	109032
#	129515
#	156885
#	170172
#
# Disc length: 2424 seconds
#
# Revision: 4
# Processed by: cddbd v1.4PL0 Copyright (c) Steve Scherf et al.
# Submitted via: EasyCDDAExtractor 4.6.0.1
#
DISCID=85097609
DTITLE=Various Artist - Nothin' But The Blues
DYEAR=1900
DGENRE=Blues
TTITLE0=Worried Life Blues (Robben Ford and The Blue Line)
TTITLE1=You Cut Me To The Bone (Robben Ford and The Blue Line)
TTITLE2=Playin' With My Friends (B.B. King)
TTITLE3=Something You Got (B.B. King)
TTITLE4=Country Blues (Muddy Waters)
TTITLE5=Crazy Mama (Larry Carlton)
TTITLE6=Cold Day In Hell (Larry Carlton)
TTITLE7=Mean Old World (Little Walter)
TTITLE8=Bring It On Home (Sonny Boy Williamson)
EXTD=
EXTT0=
EXTT1=
EXTT2=
EXTT3=
EXTT4=
EXTT5=
EXTT6=
EXTT7=
EXTT8=
PLAYORDER=
